<svg xmlns="http://www.w3.org/2000/svg" width="220.772" height="56.935" viewBox="0 0 220.772 56.935">
  <g id="trust_Safe" data-name="trust &amp; Safe" transform="translate(-555.996 -245.858)">
    <g id="ico_bank_logo" data-name="ico_bank logo" transform="translate(556 252.078)">
      <path id="Path_3043" data-name="Path 3043" d="M0,0H43.991V43.991H0Z" fill="none"/>
      <path id="Path_3044" data-name="Path 3044" d="M21605.086,22380.637v-4h4a2,2,0,0,0,1.994-2v-4h4v4a5.99,5.99,0,0,1-5.994,6Zm-27.994,0a5.993,5.993,0,0,1-6-6v-4h4v4a2,2,0,0,0,1.994,2h4v4Zm14-7.037-10-5.758a3.958,3.958,0,0,1-2-3.459V22352.9a4.008,4.008,0,0,1,2-3.477l10-5.74a3.98,3.98,0,0,1,4,0l10,5.758a3.96,3.96,0,0,1,2,3.459v11.482a3.96,3.96,0,0,1-2,3.459l-10,5.758a3.98,3.98,0,0,1-4,0Zm4-13.818v9.2l8-4.594v-9.264Zm-12,4.6,8,4.594v-9.2l-8-4.662Zm2.078-12.678,7.92,4.617,7.92-4.617-7.92-4.561Zm25.91-5.061v-4a2,2,0,0,0-1.994-2h-4v-4h4a5.99,5.99,0,0,1,5.994,6v4Zm-39.99,0v-4a5.993,5.993,0,0,1,6-6h4v4h-4a2,2,0,0,0-1.994,2v4Z" transform="translate(-21571.098 -22336.646)" fill="#bcbdc0"/>
    </g>
    <path id="Path_3022" data-name="Path 3022" d="M5.863-59.824v14.711h1.63V-59.824h4.263v-1.233H1.6v1.233Zm13.766,7.207c2.131,0,4.012.149,4.188,2.275.1,1.169.05,3.89.752,5.23h1.78V-45.3c-.928-.425-.8-3.231-.853-4-.025-2-.326-3.423-2.508-3.89v-.043a3.559,3.559,0,0,0,2.758-3.741c0-3.231-2.357-4.082-5.792-4.082H16.319v15.944h1.63v-7.5Zm-1.68-7.207h2.357c2.558,0,3.811.616,3.811,2.955,0,2.849-2.758,3.019-3.31,3.019H17.949Zm13.666,10.5c0,2.912,1.5,4.592,5.115,4.592,4.062,0,5.165-2.126,5.165-5.23v-11.1h-1.63V-49.62c0,2.147-.652,3.656-3.586,3.656-2.833,0-3.435-1.276-3.435-3.529V-61.057h-1.63Zm19.91-5c-1.68-.616-2.282-1.233-2.282-2.806a2.943,2.943,0,0,1,3.235-3.082c2.106,0,3.335,1.233,3.235,3h1.58c.075-2.508-1.856-4.23-4.789-4.23-3.059,0-4.89,1.807-4.89,4.4,0,2.551,1.805,3.508,4.338,4.358,2.156.723,4.213,1.105,4.213,3.508,0,1.977-1.5,3.21-3.786,3.21-2.583,0-3.561-1.658-3.536-3.656h-1.6c-.075,2.827,1.73,4.889,5.165,4.889,3.285,0,5.391-1.743,5.391-4.486,0-2.891-2.056-3.614-4.814-4.592Zm14.519-5.506v14.711h1.63V-59.824h4.263v-1.233H61.78v1.233ZM93.425-47.643a4.089,4.089,0,0,1-3.661,1.679c-2.131,0-3.561-1.233-3.561-3.146,0-1.977,1.1-3.04,2.859-4.145ZM89.514-55.1a5.5,5.5,0,0,1-1.63-3.444c0-1.063.7-1.658,1.906-1.658,1.354,0,1.931.6,1.931,1.764A4.077,4.077,0,0,1,89.514-55.1Zm-1.128.829c-2.006,1.233-3.811,2.679-3.811,5.038,0,2.827,1.981,4.507,5.14,4.507A5.791,5.791,0,0,0,94.228-46.5c.025-.021.05-.064.075-.085l1.279,1.616h1.78l-2.081-2.827.1-.17a10.551,10.551,0,0,0,1.153-4.443H94.9a9.284,9.284,0,0,1-.6,3.3c-.025.043-.075.064-.075.128h-.05L90.316-54.17c1.755-1.105,3.034-2.4,3.034-4.422,0-1.786-1.5-2.849-3.46-2.849-2.056,0-3.46,1.063-3.46,2.934C86.429-56.721,87.257-55.679,88.385-54.276Zm25.8-.043c-1.68-.616-2.282-1.233-2.282-2.806a2.943,2.943,0,0,1,3.235-3.082c2.106,0,3.335,1.233,3.235,3h1.58c.075-2.508-1.856-4.23-4.789-4.23-3.059,0-4.89,1.807-4.89,4.4,0,2.551,1.805,3.508,4.338,4.358,2.156.723,4.213,1.105,4.213,3.508,0,1.977-1.5,3.21-3.786,3.21-2.583,0-3.561-1.658-3.536-3.656h-1.6c-.075,2.827,1.73,4.889,5.165,4.889,3.285,0,5.391-1.743,5.391-4.486,0-2.891-2.056-3.614-4.814-4.592ZM127.7-51.257l2.482-8.057h.05l2.482,8.057Zm1.58-9.8-5.04,15.944h1.58l1.53-4.911h5.717l1.479,4.911H136.2l-5.04-15.944Zm13.064,15.944v-7.738h6.269v-1.233h-6.269v-5.74h7.021v-1.233h-8.651v15.944Zm20.612,0v-1.233h-7.021v-6.505h6.269v-1.233h-6.269v-5.74h6.9v-1.233h-8.526v15.944Z" transform="translate(613.809 307.298)" fill="#fff"/>
    <path id="Path_3023" data-name="Path 3023" d="M19.292-92.476c5.408.14,9.014.047,9.014,4.1,0,4.7-2.668,4.424-9.014,4.517Zm0-13.737c4.471,0,8.149-.14,8.149,3.306,0,4.144-2.6,3.912-8.149,4.144Zm5.192,28.639C34.8-77.575,41-80.6,41-87.68c0-4.331-1.226-6.193-6.995-8.336v-.093c4.4-1.537,6.129-4.284,6.129-7.358,0-7.032-7.5-9.034-17.09-9.034H6.6v34.925Zm32.6,0,1.514-6.8h9.951l1.8,6.8H83.191L71.437-112.5H56.15L44.323-77.575ZM67.327-90.52H59.972l3.678-15.647h.144Zm43.549,12.946h12.98V-112.5H111.813l1.226,19.512h-.216L103.015-112.5H89.963v34.925h12.043L100.852-97.04l.144-.093Zm33.863,0V-86.19l2.812-3.539,6.995,12.154h13.413L155.7-97.086,167.237-112.5h-12.98l-9.374,13.97h-.144V-112.5H132.047v34.925Z" transform="translate(608.809 380.368)" fill="#00a8db"/>
  </g>
</svg>
