<svg xmlns="http://www.w3.org/2000/svg" width="851.17" height="219.511" viewBox="0 0 851.17 219.511">
  <g id="trust_Safe" data-name="trust &amp; Safe" transform="translate(-556 -245.858)">
    <g id="ico_bank_logo" data-name="ico_bank logo" transform="translate(556 269.839)">
      <path id="Path_3046" data-name="Path 3046" d="M0,0H169.607V169.607H0Z" fill="none"/>
      <path id="Path_3045" data-name="Path 3045" d="M23519.857,22100.135v-15.418h15.42a7.734,7.734,0,0,0,7.709-7.711v-15.42h15.42v15.42a23.1,23.1,0,0,1-23.129,23.129Zm-107.93,0a23.094,23.094,0,0,1-23.129-23.129v-15.42h15.418v15.42a7.735,7.735,0,0,0,7.711,7.711h15.42v15.418Zm53.963-27.137-38.543-22.2a15.251,15.251,0,0,1-7.711-13.338V21993.2a15.472,15.472,0,0,1,7.711-13.414l38.543-22.125a15.336,15.336,0,0,1,15.424,0l38.543,22.207a15.241,15.241,0,0,1,7.711,13.332v44.256a15.251,15.251,0,0,1-7.711,13.338l-38.543,22.2a15.336,15.336,0,0,1-15.424,0Zm15.424-53.271v35.463l30.834-17.73v-35.693Zm-46.258,17.732,30.834,17.73v-35.463l-30.834-17.961Zm8.018-48.879,30.525,17.809,30.531-17.809L23473.6,21971Zm99.912-19.5v-15.42a7.733,7.733,0,0,0-7.709-7.709h-15.42v-15.42h15.42a23.1,23.1,0,0,1,23.129,23.129v15.42Zm-154.187,0v-15.42a23.1,23.1,0,0,1,23.129-23.129h15.42v15.42h-15.42a7.733,7.733,0,0,0-7.711,7.709v15.42Z" transform="translate(-23388.799 -21930.529)" fill="#bcbdc0"/>
    </g>
    <path id="Path_3022" data-name="Path 3022" d="M18.035-55.211V1.507h6.284V-55.211H40.754v-4.754H1.6v4.754ZM71.111-27.426c8.218,0,15.468.574,16.145,8.77.387,4.508.193,15,2.9,20.163H97.02V.769C93.443-.87,93.927-11.689,93.733-14.64c-.1-7.7-1.257-13.2-9.668-15V-29.8C91.7-31.2,94.7-38.245,94.7-44.228c0-12.458-9.088-15.737-22.332-15.737H58.349V1.507h6.284V-27.426ZM64.633-55.211h9.088c9.861,0,14.695,2.377,14.695,11.393,0,10.983-10.634,11.639-12.761,11.639H64.633Zm52.689,40.489c0,11.229,5.8,17.7,19.722,17.7,15.662,0,19.915-8.2,19.915-20.163V-59.965h-6.284v44.1c0,8.278-2.514,14.1-13.825,14.1-10.925,0-13.245-4.918-13.245-13.606V-59.965h-6.284Zm76.762-19.261c-6.477-2.377-8.8-4.754-8.8-10.819,0-6.721,4.254-11.884,12.471-11.884,8.121,0,12.858,4.754,12.471,11.557h6.091c.29-9.671-7.154-16.31-18.465-16.31C186.06-61.44,179-54.473,179-44.474c0,9.835,6.961,13.524,16.725,16.8,8.314,2.787,16.242,4.262,16.242,13.524,0,7.622-5.8,12.376-14.6,12.376-9.958,0-13.728-6.393-13.631-14.1h-6.187c-.29,10.9,6.671,18.851,19.915,18.851,12.665,0,20.786-6.721,20.786-17.294,0-11.147-7.928-13.934-18.562-17.7ZM250.06-55.211V1.507h6.284V-55.211h16.435v-4.754H233.625v4.754ZM355.631-8.247c-3.384,4.754-8.024,6.475-14.115,6.475-8.218,0-13.728-4.754-13.728-12.13,0-7.622,4.254-11.721,11.021-15.983ZM340.55-37.015c-3.287-3.77-6.284-8.278-6.284-13.278,0-4.1,2.707-6.393,7.347-6.393,5.221,0,7.444,2.295,7.444,6.8C349.057-44.638,345.384-39.8,340.55-37.015Zm-4.35,3.2C328.465-29.065,321.5-23.492,321.5-14.394c0,10.9,7.637,17.376,19.819,17.376,7.154,0,12.665-1.885,17.4-6.8.1-.082.193-.246.29-.328l4.931,6.229h6.864l-8.024-10.9.387-.656c2.61-4.1,4.35-12.376,4.447-17.13h-6.284a35.8,35.8,0,0,1-2.32,12.7c-.1.164-.29.246-.29.492h-.193l-14.888-20c6.767-4.262,11.7-9.262,11.7-17.048,0-6.885-5.8-10.983-13.341-10.983-7.928,0-13.341,4.1-13.341,11.311C328.658-43.244,331.849-39.228,336.2-33.819Zm99.481-.164c-6.477-2.377-8.8-4.754-8.8-10.819,0-6.721,4.254-11.884,12.471-11.884,8.121,0,12.858,4.754,12.471,11.557h6.091c.29-9.671-7.154-16.31-18.465-16.31-11.795,0-18.852,6.967-18.852,16.966,0,9.835,6.961,13.524,16.725,16.8,8.314,2.787,16.242,4.262,16.242,13.524,0,7.622-5.8,12.376-14.6,12.376-9.958,0-13.728-6.393-13.631-14.1h-6.187c-.29,10.9,6.671,18.851,19.915,18.851,12.665,0,20.786-6.721,20.786-17.294,0-11.147-7.928-13.934-18.562-17.7Zm52.109,11.8,9.571-31.064h.193l9.571,31.064Zm6.091-37.784L474.447,1.507h6.091l5.9-18.933h22.042l5.7,18.933h6.381L501.13-59.965ZM544.248,1.507V-28.327h24.169v-4.754H544.248v-22.13h27.07v-4.754H537.964V1.507Zm79.469,0V-3.247h-27.07v-25.08h24.169v-4.754H596.647v-22.13h26.586v-4.754h-32.87V1.507Z" transform="translate(783.453 307.298)" fill="#0d497c"/>
    <path id="Path_3023" data-name="Path 3023" d="M55.533-35.3c20.852.539,34.753.18,34.753,15.8C90.286-1.365,80-2.442,55.533-2.083Zm0-52.964c17.238,0,31.417-.539,31.417,12.747,0,15.979-10.009,15.081-31.417,15.979ZM75.55,22.154c39.758,0,63.668-11.67,63.668-38.96,0-16.7-4.726-23.879-26.968-32.138V-49.3c16.96-5.925,23.632-16.518,23.632-28.367,0-27.11-28.915-34.831-65.892-34.831H6.6V22.154Zm125.7,0,5.839-26.213h38.367l6.951,26.213H301.9L256.579-112.5H197.638l-45.6,134.655Zm39.48-49.912H212.373l14.179-60.325h.556Zm167.9,49.912h50.045V-112.5h-46.43l4.726,75.227h-.834L378.328-112.5H328.006V22.154h46.43l-4.448-75.047.556-.359Zm130.559,0V-11.06l10.843-13.645L577,22.154h51.713L581.452-53.073,625.936-112.5H575.891L539.748-58.638h-.556V-112.5H490.26V22.154Z" transform="translate(778.453 443.215)" fill="#00a8db"/>
  </g>
</svg>
